# xmcd
#
# Track frame offsets: 
#        180
#        10334
#        25359
#        44333
#        59344
#        75128
#        105231
#        119711
#        131310
#        142982
#        156175
#        175614
#        193954
#
# Disc length: 2746 seconds
#
# Revision: 2
# Processed by: cddbd v1.5.1PL0 Copyright (c) Steve Scherf et al.
# Submitted via: ExactAudioCopy v0.90b4
#
DISCID=a20ab80d
DTITLE=The Rocking Highliners - Chicks, Suits and Cadillacs
DYEAR=1996
DGENRE=Blues
TTITLE0=Train Station Serenade
TTITLE1=Hot Little Mama
TTITLE2=Eat Where You Slept (Last Night)
TTITLE3=Right On Down
TTITLE4=Alimony Blues
TTITLE5=Evenin'
TTITLE6=Look On Yonder Wall
TTITLE7=Kay Guitars
TTITLE8=Bad Case Of Love
TTITLE9=Lonesome Train
TTITLE10=Old Maid Boogie
TTITLE11=Valentine
TTITLE12=Chicks, Suits and Cadillacs
EXTD=
EXTT0=
EXTT1=
EXTT2=
EXTT3=
EXTT4=
EXTT5=
EXTT6=
EXTT7=
EXTT8=
EXTT9=
EXTT10=
EXTT11=
EXTT12=
PLAYORDER=
